# xmcd
#
# Track frame offsets:
#	150
#	17183
#	36435
#	52487
#	68785
#	92455
#	106275
#	125958
#	140943
#	157545
#	172716
#
# Disc length: 2489 seconds
#
# Revision: 0
# Processed by: cddbd v1.5.2PL0 Copyright (c) Steve Scherf et al.
# Submitted via: dBpowerAMP V4.0
#
DISCID=9809b70b
DTITLE=Milan Kamnik - Gnar
DYEAR=1900
DGENRE=Country
TTITLE0=Od Pece Do Pohorja
TTITLE1=Gnar
TTITLE2=Majkeb'r
TTITLE3=Moj Dedi
TTITLE4=Rdeèi Max
TTITLE5=Vzemite Napise
TTITLE6=Puf Na Puf
TTITLE7=Znucan Rukzok
TTITLE8=Od Nedeljskih Jagrov
TTITLE9=Jaz S'm An Frišen Jagr
TTITLE10=Mladosti Ne Dam (duet z Mojco Kamnik)
EXTD=
EXTT0=
EXTT1=
EXTT2=
EXTT3=
EXTT4=
EXTT5=
EXTT6=
EXTT7=
EXTT8=
EXTT9=
EXTT10=
PLAYORDER=
